<svg width="200" height="25" viewBox="0 0 200 25" fill="none" xmlns="http://www.w3.org/2000/svg">
<path d="M21.9943 0.5H19.0947C18.2 0.5 17.4746 1.23019 17.4746 2.13097V5.05016C17.4746 5.95094 18.2 6.68118 19.0947 6.68118H21.9943C22.889 6.68118 23.6144 5.95094 23.6144 5.05016V2.13097C23.6144 1.23019 22.889 0.5 21.9943 0.5Z" fill="#002279"/>
<path d="M10.6389 6.85516H13.1852C14.2388 6.91545 15.2411 7.33334 16.0285 8.04076L16.124 8.14759C16.8303 8.93798 17.246 9.94836 17.3016 11.0101V13.5628C17.3016 14.0075 17.4771 14.4341 17.7895 14.7486C18.1019 15.0631 18.5256 15.2397 18.9674 15.2397H21.9486C22.3903 15.2397 22.814 15.0631 23.1264 14.7486C23.4388 14.4341 23.6143 14.0075 23.6143 13.5628V10.5615C23.6143 10.1167 23.4388 9.69023 23.1264 9.37575C22.814 9.06127 22.3903 8.88458 21.9486 8.88458H19.4129C18.3583 8.82852 17.3547 8.41006 16.5696 7.69898L16.4635 7.60284C15.7594 6.81103 15.3441 5.8015 15.2859 4.74034V2.17691C15.2859 1.73219 15.1104 1.30565 14.798 0.991167C14.4856 0.676687 14.062 0.5 13.6202 0.5H10.6389C10.1972 0.5 9.77351 0.676687 9.46114 0.991167C9.14877 1.30565 8.97327 1.73219 8.97327 2.17691V5.1783C8.97327 5.62301 9.14877 6.04951 9.46114 6.36399C9.77351 6.67847 10.1972 6.85516 10.6389 6.85516Z" fill="#002279"/>
<path d="M21.9201 17.8391H19.3463C18.275 17.7705 17.2598 17.332 16.4722 16.5975L16.1827 16.306C15.4688 15.507 15.0486 14.4857 14.9923 13.4125V10.8214C14.9895 10.3727 14.8112 9.94322 14.4961 9.62594C14.1809 9.30866 13.7543 9.12916 13.3086 9.12636H10.7348C9.67227 9.08133 8.65748 8.66962 7.8608 7.96035L7.57125 7.66884C6.85728 6.8699 6.43713 5.84857 6.38084 4.77538V2.19507C6.38084 1.74551 6.20344 1.31435 5.88773 0.996445C5.57197 0.678589 5.14373 0.5 4.69717 0.5H1.68367C1.23716 0.5 0.80887 0.678589 0.493158 0.996445C0.177398 1.31435 0 1.74551 0 2.19507V5.22884C0 5.6784 0.177398 6.10956 0.493158 6.42742C0.80887 6.74532 1.23716 6.92391 1.68367 6.92391H4.24676C5.32903 6.97374 6.36036 7.40124 7.16373 8.13309L7.45328 8.4246C8.16499 9.22497 8.5848 10.2454 8.64364 11.318V13.9092C8.64644 14.3579 8.82475 14.7874 9.13989 15.1046C9.45502 15.4219 9.88167 15.6014 10.3273 15.6042H12.9011C13.9553 15.6707 14.9565 16.0928 15.743 16.8026L16.0326 17.0941C16.7443 17.8945 17.1641 18.915 17.2229 19.9876V22.5787C17.2257 23.0275 17.4041 23.4569 17.7192 23.7742C18.0343 24.0915 18.461 24.2709 18.9066 24.2738H21.9308C22.3765 24.2709 22.8032 24.0915 23.1183 23.7742C23.4334 23.4569 23.6117 23.0275 23.6145 22.5787V19.5341C23.6117 19.0836 23.4319 18.6525 23.1145 18.3349C22.797 18.0173 22.3676 17.8391 21.9201 17.8391Z" fill="#28C28E"/>
<path d="M4.86738 17.6174H1.74469C0.781121 17.6174 0 18.4038 0 19.3739V22.5177C0 23.4877 0.781121 24.2741 1.74469 24.2741H4.86738C5.83095 24.2741 6.61207 23.4877 6.61207 22.5177V19.3739C6.61207 18.4038 5.83095 17.6174 4.86738 17.6174Z" fill="#002279"/>
<path d="M13.8125 17.7134H11.1132C9.99057 17.6555 8.9222 17.2236 8.08641 16.4896L7.97349 16.3903C7.2192 15.5672 6.77677 14.5165 6.71985 13.4134V10.7673C6.71427 10.3215 6.53268 9.89489 6.21287 9.5765C5.89306 9.25816 5.45973 9.07253 5.00318 9.05835H1.77314C1.30285 9.05835 0.851877 9.24074 0.519351 9.56536C0.186825 9.88998 0 10.3302 0 10.7894V13.8875C0 14.3466 0.186825 14.7869 0.519351 15.1116C0.851877 15.4362 1.30285 15.6185 1.77314 15.6185H4.48367C5.60528 15.6808 6.67224 16.1121 7.51045 16.8424L7.61211 16.9526C8.36398 17.7685 8.80647 18.8115 8.86569 19.9074V22.5425C8.86569 22.7708 8.91194 22.9968 9.00174 23.2075C9.09158 23.4182 9.2232 23.6096 9.38906 23.7704C9.55488 23.9313 9.75171 24.0586 9.96814 24.1449C10.1846 24.2313 10.4164 24.275 10.6501 24.2735H13.8125C14.2827 24.2735 14.7337 24.0912 15.0662 23.7666C15.3988 23.4419 15.5856 23.0016 15.5856 22.5425V19.4444C15.5856 18.9853 15.3988 18.545 15.0662 18.2204C14.7337 17.8957 14.2827 17.7134 13.8125 17.7134Z" fill="#002279"/>
<path d="M35.5342 23.8775V0.764152H38.6512V10.6369H49.971V0.764152H53.0881V23.8775H49.971V13.3444H38.6512V23.8775H35.5342Z" fill="#002279"/>
<path d="M74.771 24.2077L72.2118 17.6039H61.581L59.0217 24.1417L56.364 23.0521L65.3543 0.764152H68.7666L77.6256 23.0521L74.771 24.2077ZM62.5653 14.9624H71.1946L66.8964 3.86795L62.5653 14.9624Z" fill="#002279"/>
<path d="M95.1784 24.2738L84.0227 13.2454V23.8775H80.9057V0.764152H84.0227V11.2973L93.8004 0.665095L95.9003 2.61322L86.9429 11.9907L97.344 22.0285L95.1784 24.2738Z" fill="#002279"/>
<path d="M114.884 24.2738L103.729 13.2454V23.8775H100.611V0.764152H103.729V11.2973L113.506 0.665095L115.606 2.61322L106.649 11.9907L117.05 22.0285L114.884 24.2738Z" fill="#002279"/>
<path d="M138.189 24.2077L135.63 17.6039H124.999L122.44 24.1417L119.782 23.0521L128.772 0.764152H132.185L141.044 23.0521L138.189 24.2077ZM125.984 14.9624H134.613L130.315 3.86795L125.984 14.9624Z" fill="#002279"/>
<path d="M157.711 24.2738L154.856 18.0001C154.134 16.4372 153.227 15.3256 152.133 14.6652C151.039 14.0048 149.639 13.6746 147.933 13.6746H147.441V23.8775H144.324V0.830191C145.483 0.720127 146.588 0.643082 147.638 0.599056C148.71 0.533019 149.847 0.5 151.05 0.5C153.85 0.5 155.95 1.07233 157.35 2.21699C158.772 3.36166 159.483 4.83651 159.483 6.64156C159.483 8.24849 159.001 9.54724 158.039 10.5378C157.098 11.5064 155.731 12.2328 153.937 12.7171C154.528 12.9812 155.053 13.3004 155.512 13.6746C155.972 14.0268 156.409 14.5111 156.825 15.1275C157.262 15.7218 157.7 16.5033 158.137 17.4718L160.631 22.887L157.711 24.2738ZM147.441 11.0331H151.05C152.625 11.0331 153.905 10.6809 154.889 9.97649C155.873 9.27208 156.365 8.25949 156.365 6.93873C156.365 5.83809 155.906 4.93557 154.987 4.23116C154.069 3.50474 152.756 3.14153 151.05 3.14153C150.306 3.14153 149.639 3.15254 149.049 3.17455C148.458 3.19656 147.922 3.22958 147.441 3.27361V11.0331Z" fill="#002279"/>
<path d="M164.574 23.8775V0.764152H178.355V3.47172H167.691V10.5048H176.879V13.1463H167.691V21.17H178.355V23.8775H164.574Z" fill="#002279"/>
<path d="M182.774 23.8775V0.764152H186.908L197.047 19.9813V0.764152H200V23.8775H195.931L185.727 4.79249V23.8775H182.774Z" fill="#002279"/>
</svg>
